<?xml version="1.0" encoding="utf-8"?>
<!-- Generator: Adobe Illustrator 27.0.1, SVG Export Plug-In . SVG Version: 6.00 Build 0)  -->
<svg version="1.1" id="Layer_1" xmlns="http://www.w3.org/2000/svg" xmlns:xlink="http://www.w3.org/1999/xlink" x="0px" y="0px"
	style="enable-background:new 0 0 800 400;" xml:space="preserve">
<style type="text/css">
	.st0{fill:#231F20;}
</style>
<g>
	<g>
		<path class="st0" d="M164.5,199.69c6.93-19.77,13.43-39.69,19.5-59.74c6.05-19.99,11.66-40.12,16.84-60.35
			c2.93-11.44,5.72-22.92,8.36-34.42c0.32-1.39-2.19-1.13-2.7-0.39c-4.57,6.69-7.93,14.06-10.79,21.61
			c-2.52,6.68-4.67,13.51-6.45,20.43c-3.6,13.92-5.68,28.23-6.28,42.59c-0.6,14.34,0.26,28.75,2.54,42.93
			c2.28,14.2,6.01,28.18,11.14,41.62c5.11,13.4,11.61,26.28,19.45,38.3c0.99,1.51,2,3.01,3.03,4.5c0.81-0.51,1.62-1.02,2.43-1.53
			c-11.72-10.81-23.43-21.62-35.15-32.43c-5.86-5.4-11.72-10.81-17.57-16.21c-5.6-5.17-11.3-10.25-16.78-15.55
			c-2.46-2.38-4.82-4.87-6.89-7.6c-2.02-2.67-4.06-5.71-4.91-8.99c-0.93-3.6,0.81-6.31,3.47-8.6c2.46-2.12,5.12-4.04,7.82-5.84
			c10.77-7.21,22.91-12.12,35.3-15.75c14.34-4.2,29.09-6.75,43.81-9.22c0.62-0.1,1.34-0.78,1.16-1.45c-0.2-0.76-1.12-0.78-1.73-0.68
			c-26.54,4.45-54.23,9.23-77.44,23.69c-2.88,1.79-5.67,3.71-8.35,5.78c-2.5,1.94-5.28,4.04-6.59,7.02
			c-1.37,3.13-0.39,6.41,1.05,9.32c1.56,3.14,3.62,6.01,5.91,8.66c4.77,5.51,10.4,10.29,15.75,15.23
			c6.1,5.63,12.2,11.26,18.31,16.89c13.55,12.5,27.09,25,40.64,37.5c0.87,0.8,3.27-0.31,2.43-1.53c-8.09-11.7-14.9-24.25-20.3-37.41
			c-5.39-13.12-9.42-26.8-12.05-40.74c-2.64-13.98-3.88-28.22-3.66-42.45c0.22-14.18,1.86-28.34,4.98-42.17
			c1.57-6.95,3.51-13.81,5.83-20.55c2.52-7.32,5.39-14.58,9.21-21.33c0.98-1.74,2.04-3.42,3.17-5.07c-0.9-0.13-1.8-0.26-2.7-0.39
			c-4.7,20.4-9.83,40.69-15.4,60.86c-5.54,20.04-11.51,39.95-17.91,59.73c-3.61,11.16-7.36,22.27-11.24,33.34
			C161.14,200.91,164.04,201,164.5,199.69L164.5,199.69z"/>
	</g>
</g>
<g>
	<g>
		<path class="st0" d="M346.63,98.93c2.39-1.58,1.27-4.91-1.22-5.66c-3.22-0.97-6.93,1.11-9.83,2.33
			c-6.02,2.53-11.84,5.53-17.42,8.91c-11.1,6.74-21.24,15.1-30.03,24.66c-8.74,9.51-16.17,20.24-21.92,31.81
			c-2.89,5.82-5.35,11.85-7.35,18.04c-2.38,7.36-4.3,15.24-2.9,23c1.2,6.69,4.96,12.85,11.14,15.97c6.01,3.03,12.98,3.19,19.55,2.8
			c1.7-0.1,3.4-0.25,5.1-0.41c0.58-0.05,1.55-0.42,1.61-1.11c0.07-0.7-0.78-0.89-1.31-0.84c-6.25,0.59-12.82,1.14-18.94-0.59
			c-6.35-1.8-11.05-6.35-13.21-12.57c-2.39-6.88-1.53-14.25,0.29-21.16c1.61-6.1,3.81-12.06,6.37-17.82
			c9.73-21.88,25.44-41.01,44.9-54.95c5.46-3.91,11.21-7.42,17.21-10.44c3-1.51,6.06-2.91,9.17-4.18c1.52-0.62,3.25-1.58,4.91-1.68
			c0.92-0.06,1.68,0.25,2.08,1.11c0.22,0.47,0.41,1.3-0.1,1.64c-0.5,0.33-0.74,0.98-0.19,1.37
			C345.13,99.56,346.1,99.28,346.63,98.93L346.63,98.93z"/>
	</g>
</g>
<g>
	<g>
		<path class="st0" d="M336.25,147.01c-6.24,10.19-12.17,20.57-17.77,31.13c-0.68,1.28-1.36,2.57-2.03,3.86
			c-0.62,1.2-1.56,2.55-1.48,3.97c0.11,1.94,2.22,2.66,3.84,2.86c4.51,0.56,9.56-0.68,13.72-2.35c5-2.02,9.49-5.17,12.9-9.38
			c0.11-0.13,0.21-0.25,0.05-0.39c-4.78-4.2-14.79-0.98-15.83,5.42c-0.03,0.17,0.04,0.28,0.24,0.31c7.57,1.05,15.82-2.4,19.82-9.03
			c-0.79,0.28-1.58,0.57-2.37,0.85c3.2-0.02,9.24,0.81,9.11,5.16c-0.08,2.54-2.5,5.07-4.24,6.7c-1.94,1.8-4.21,3.16-6.71,4
			c0.6,0.08,1.21,0.15,1.81,0.23c2.64-2.29,5.81-3.44,9.31-3.24c-0.06-0.21-0.11-0.43-0.17-0.64c-1.76,1.16-2.65,3.27-1.77,5.28
			c0.23,0.52,1.65,0.05,1.95-0.05c13.93-4.95,25.91-13.9,36.51-24.02c10.48-10.01,20.7-21.04,27.8-33.76
			c3.94-7.05,6.74-14.68,7.78-22.72c0.08-0.59-2.34,0.18-2.56,0.34c-10.23,7.37-15.04,19.64-19.18,31.09
			c-4.84,13.4-8.45,27.35-9.5,41.59c-0.6,8.11-0.33,16.27,0.99,24.3c0.97-0.26,1.93-0.52,2.9-0.78
			c-8.15-16.83-18.42-32.58-30.52-46.83c-0.41,0.32-0.83,0.63-1.24,0.95c16.9-5.12,34.08-9.31,51.45-12.52
			c4.93-0.91,9.88-1.74,14.83-2.5c0.32-0.05,1.69-0.35,1.7-0.79c0.01-0.5-0.84-0.34-1.16-0.29c-17.64,2.7-35.13,6.37-52.36,11
			c-4.92,1.32-9.82,2.73-14.7,4.2c-0.22,0.07-1.64,0.48-1.24,0.95c12.04,14.19,22.24,29.88,30.35,46.62c0.3,0.63,3.01-0.09,2.9-0.78
			c-2.3-13.95-1.35-28.2,1.6-41.99c1.46-6.82,3.39-13.54,5.65-20.14c2.11-6.17,4.39-12.35,7.3-18.19
			c3.02-6.05,6.92-11.81,12.47-15.81c-0.85,0.11-1.71,0.23-2.56,0.34c-1.82,14.14-9.33,26.73-18.21,37.6
			c-4.48,5.49-9.34,10.67-14.37,15.66c-5.16,5.12-10.6,10.02-16.47,14.31c-6.5,4.75-13.53,8.78-21.14,11.48
			c0.65-0.02,1.3-0.04,1.95-0.05c-0.66-1.51-0.36-3.45,1.09-4.41c0.45-0.3,0.4-0.61-0.17-0.64c-4.97-0.29-10.04,1.37-13.81,4.64
			c-0.77,0.67,1.65,0.28,1.81,0.23c3.44-1.15,6.63-3.06,9.15-5.69c2.02-2.1,5.04-5.69,3.07-8.68c-1.5-2.28-4.69-2.96-7.21-3.23
			c-1.33-0.14-3.47-0.45-4.53,0.59c-0.57,0.56-0.93,1.43-1.45,2.06c-0.61,0.74-1.29,1.43-2.02,2.05c-3.13,2.68-7.14,3.99-11.24,3.43
			c0.08,0.1,0.16,0.21,0.24,0.31c0.8-4.9,6.42-7.29,10.25-3.92c0.02-0.13,0.04-0.26,0.05-0.39c-2.75,3.4-6.21,6.16-10.18,8.01
			c-1.88,0.88-3.88,1.54-5.92,1.93c-1.97,0.38-4.25,0.74-6.24,0.33c-0.83-0.17-1.7-0.51-2.21-1.23c-0.79-1.14-0.17-2.47,0.38-3.57
			c1.16-2.31,2.39-4.58,3.61-6.86c2.51-4.7,5.09-9.37,7.73-14c2.96-5.19,6.01-10.33,9.13-15.43c0.28-0.46-1.04-0.31-1.16-0.29
			C337.41,146.3,336.56,146.51,336.25,147.01L336.25,147.01z"/>
	</g>
</g>
<g>
	<g>
		<path class="st0" d="M485.01,135.45c-2.54,13.8-5.08,27.63-8.77,41.17c-0.91,3.34-1.89,6.66-2.96,9.96
			c-1.04,3.2-2.04,6.49-3.41,9.57c-0.52,1.18-1.19,2.32-2.07,3.27c-0.32,0.35-0.92,1.06-1.38,1.13c-0.57,0.09-1.42-0.61-1.78-1.03
			c-1.72-2-1.22-5.43-1.08-7.84c1.46-25.77,13.18-49.68,26.94-71.04c3.47-5.39,6.96-10.92,11.12-15.81
			c4.02-4.74,9.35-9.3,15.78-9.96c2.79-0.28,6.85-0.07,7.99,3.03c0.96,2.62-0.19,5.58-1.08,8.05c-1.96,5.43-4.5,10.64-7.41,15.63
			c-11.84,20.32-29.26,36.76-40.85,57.24c-2.89,5.1-5.46,11.02-5.03,17.01c0.43,6,4.43,10.25,9.5,13.02
			c5.55,3.05,11.76,5.14,17.86,6.76c6.42,1.7,13.03,2.74,19.66,3.11c3.3,0.18,6.62,0.18,9.92,0.04c0.51-0.02,1.65-0.21,1.94-0.7
			c0.3-0.51-0.26-0.53-0.69-0.51c-14.23,0.62-28.59-2-41.67-7.64c-5.49-2.37-11.28-5.61-13.06-11.75
			c-1.81-6.23,0.74-12.91,3.65-18.38c5.79-10.9,13.65-20.64,21.26-30.29c7.5-9.5,15.09-19.04,21.08-29.6
			c2.96-5.22,5.6-10.72,7.42-16.46c0.74-2.33,1.37-5.32-0.2-7.46c-1.69-2.29-5.18-2.47-7.78-2.39
			c-13.84,0.42-22.18,12.43-29.13,22.8c-14.67,21.92-27.55,46.35-29.88,73.05c-0.36,4.11-1.72,13.54,5.25,12.21
			c2.68-0.51,4.62-2.38,5.93-4.68c1.66-2.9,2.59-6.39,3.63-9.54c4.52-13.62,7.51-27.69,10.19-41.77c0.68-3.56,1.33-7.13,1.99-10.7
			C488,134.24,485.14,134.71,485.01,135.45L485.01,135.45z"/>
	</g>
</g>
<g>
	<g>
		<path class="st0" d="M501.63,183.55c-1.46,1.98-4.35,2.03-5.76,4.15c-1.46,2.19-0.24,4.22,2.36,4.08c4.02-0.22,12.31-3.9,9.94-9.2
			c-0.94,0.3-1.87,0.6-2.81,0.91c2.16,1.84,9.14,2.77,7.65,6.94c-0.32,0.89,2.46,0.02,2.76-0.3c2.11-2.24,4.44-4.35,7.03-6.02
			c1.08-0.7,2.38-1.02,2.88,0.59c0.43,1.37-0.61,2.95-1.38,3.99c-0.39,0.52,0.34,0.6,0.72,0.6c0.64-0.01,1.47-0.25,1.93-0.72
			c3.61-3.71,7.97-6.65,12.83-8.46c1.34-0.5,2.82-1.12,4.12-0.2c0.85,0.6,1.35,1.61,1.55,2.61c0.56,2.7-1.15,5.15-2.65,7.22
			c-0.62,0.86,2.2,0.5,2.65-0.13c1.72-2.39,3.72-5.26,2.77-8.35c-0.99-3.23-4.21-3.55-7.08-2.78c-6.36,1.72-12.28,5.53-16.84,10.22
			c0.88-0.04,1.76-0.09,2.65-0.13c1-1.34,2.35-3.38,1.44-5.09c-0.89-1.64-3.08-1.49-4.62-1.08c-2.01,0.54-3.7,1.78-5.32,3.03
			c-1.9,1.47-3.68,3.09-5.32,4.84c0.92-0.1,1.84-0.2,2.76-0.3c1.66-4.64-5.45-5.5-7.81-7.51c-0.46-0.39-3.13,0.19-2.81,0.91
			c0.75,1.68,0.2,3.57-1.1,4.83c-0.75,0.73-1.69,1.19-2.65,1.58c-0.85,0.34-2.19,1.1-2.98,0.36c-1.4-1.31,0.41-3.35,1.59-3.94
			c1.51-0.75,3.11-1.36,4.14-2.76C504.9,182.57,502.08,182.92,501.63,183.55L501.63,183.55z"/>
	</g>
</g>
<g>
	<g>
		<path class="st0" d="M562.93,181.31c-4.52,0.27-8.93,2.6-11.09,6.68c-0.26,0.5,1.08,0.34,1.17,0.33
			c4.53-0.71,8.85-2.33,12.71-4.81c-0.86,0.11-1.71,0.21-2.57,0.32c0.08,1.34,0.16,2.69,0.25,4.03c0.05,0.76,2.51-0.22,2.77-0.48
			c1.57-1.58,3.25-3.05,5.05-4.36c0.82-0.6,1.65-1.16,2.51-1.7c0.61-0.38,1.92-1.46,2.56-1.27c0.75,0.22,1.21,1.66,1.45,2.29
			c0.36,0.94,0.64,1.91,0.84,2.9c0.44,2.23,0.42,4.49-0.02,6.72c-0.18,0.89,2.28-0.01,2.55-0.17c9.62-5.73,18.01-13.28,25.35-21.69
			c3.63-4.16,7.02-8.53,10.22-13.04c3.38-4.76,6.54-9.71,8.95-15.05c2.59-5.74,4.2-11.91,4.07-18.23c-0.02-0.81-2.63,0.29-2.88,0.63
			c-11.03,15-20.29,31.29-27.5,48.46c-2.04,4.86-3.91,9.78-5.62,14.76c0.96-0.21,1.92-0.42,2.88-0.63
			c-0.37-7.13,4.94-14.93,12.56-14.93c3.56,0,7.13,1.37,9.77,3.76c2.53,2.29-3.15,7.35-4.11,9.53c-1.1,2.5-1.08,6.53,2.16,7.3
			c0.65,0.15,1.45-0.06,2.03-0.36c0.25-0.13,1-0.65,0.34-0.81c-3.72-0.88-2.16-6.18-0.67-8.28c1.19-1.69,2.69-3.26,3.42-5.23
			c0.22-0.6,0.64-1.79,0.33-2.4c-0.41-0.81-1.74-1.59-2.48-2.07c-6.55-4.34-16.02-3.27-21.55,2.26c-3.16,3.16-4.93,7.54-4.7,12.02
			c0.04,0.67,2.69-0.08,2.88-0.63c6.05-17.61,14.17-34.49,24.18-50.19c2.83-4.44,5.82-8.78,8.94-13.02
			c-0.96,0.21-1.92,0.42-2.88,0.63c0.24,11.43-5.32,21.88-11.62,31.05c-6.22,9.05-13.3,17.62-21.45,25
			c-4.59,4.15-9.54,7.87-14.86,11.04c0.85-0.06,1.7-0.12,2.55-0.17c0.52-2.67,0.5-5.41-0.19-8.06c-0.57-2.17-1.39-4.93-4.11-4.71
			c-2.56,0.2-5.03,2.02-7.08,3.43c-2.34,1.6-4.51,3.43-6.51,5.43c0.92-0.16,1.84-0.32,2.77-0.48c-0.08-1.34-0.16-2.69-0.25-4.03
			c-0.04-0.72-2.3,0.14-2.57,0.32c-3.05,1.96-6.38,3.25-9.96,3.81c0.39,0.11,0.78,0.22,1.17,0.33c1.4-2.64,3.93-4.77,6.99-4.96
			c0.52-0.03,1.65-0.2,1.94-0.71C563.92,181.33,563.37,181.28,562.93,181.31L562.93,181.31z"/>
	</g>
</g>
<g>
	<g>
		<path class="st0" d="M636.53,181.43c-1.84-0.31-3.82,1.15-3.91,3.05c-0.08,1.89,1.56,2.99,3.14,3.62
			c3.67,1.47,8.36,2.46,11.87,0.13c0.45-0.3,0.79-0.95,0.21-1.31c-0.6-0.36-1.52-0.14-2.06,0.22c-0.97,0.64-2.05,0.67-3.24,0.54
			c-1.37-0.15-2.72-0.56-4.03-0.98c-1.02-0.32-2.27-0.76-2.8-1.78c-0.22-0.43-0.22-1-0.03-1.44c0.03-0.09,0.22-0.35,0.22-0.35
			c0.09-0.19,0.11-0.02-0.06,0.02c-0.12,0.03-0.69,0.09-0.37,0.15c0.64,0.11,1.58-0.26,1.9-0.84
			C637.72,181.81,637.05,181.52,636.53,181.43L636.53,181.43z"/>
	</g>
</g>
<g>
	<g>
		<path class="st0" d="M626.72,170.65c1.67,0,2.21-2.18,0.24-2.18C625.28,168.47,624.75,170.65,626.72,170.65L626.72,170.65z"/>
	</g>
</g>
<g>
	<g>
		<path class="st0" d="M743.91,425.94c0.64,0,1.53-0.14,2.05-0.55c0.38-0.3,0.47-0.58-0.16-0.58c-0.64,0-1.53,0.14-2.05,0.55
			C743.38,425.65,743.29,425.94,743.91,425.94L743.91,425.94z"/>
	</g>
</g>
<g>
	<g>
		<path class="st0" d="M718.34,360.85c0.64,0,1.53-0.12,2.05-0.55c0.37-0.3,0.47-0.64-0.17-0.64c-0.64,0-1.53,0.12-2.05,0.55
			C717.8,360.51,717.7,360.85,718.34,360.85L718.34,360.85z"/>
	</g>
</g>
<g>
	<g>
		<path class="st0" d="M702.06,459.09c0.64,0,1.53-0.14,2.05-0.55c0.38-0.3,0.47-0.6-0.16-0.6c-0.64,0-1.53,0.14-2.05,0.55
			C701.52,458.78,701.42,459.09,702.06,459.09L702.06,459.09z"/>
	</g>
</g>
<g>
	<g>
		<path class="st0" d="M509.98,89.53c0.57,0,1.63-0.2,1.92-0.77c0.29-0.57-0.25-0.79-0.77-0.79c-0.57,0-1.63,0.2-1.92,0.77
			C508.93,89.31,509.46,89.53,509.98,89.53L509.98,89.53z"/>
	</g>
</g>
</svg>
