<?xml version="1.0" encoding="utf-8"?>
<!-- Generator: Adobe Illustrator 27.0.1, SVG Export Plug-In . SVG Version: 6.00 Build 0)  -->
<svg version="1.1" id="Layer_1" xmlns="http://www.w3.org/2000/svg" xmlns:xlink="http://www.w3.org/1999/xlink" x="0px" y="0px"
	 viewBox="0 0 800 400" style="enable-background:new 0 0 800 400;" xml:space="preserve">
<style type="text/css">
	.st0{fill:#231F20;}
</style>
<g>
	<g>
		<path class="st0" d="M182.4,211.97c6.72-19.07,13.41-38.16,20.17-57.22c6.49-18.32,13.46-36.41,22.31-53.74
			c4.85-9.5,10.15-18.76,15.86-27.75c0.23-0.37-0.71-0.33-0.8-0.32c-0.61,0.04-1.21,0.25-1.74,0.54
			c-17.28,9.43-26.76,28.44-28.96,47.44c-2.8,24.21,4.72,47.93,11.22,70.93c1.64,5.79,3.23,11.6,4.6,17.46
			c1.3,5.53,3.12,11.81,1.37,17.44c-0.67,2.18-1.91,4.26-3.68,5.72c-1.93,1.58-4.16,1.65-6.42,0.71
			c-4.51-1.87-7.54-6.29-10.09-10.23c-6.53-10.06-12.78-20.31-18.72-30.73c-1.51-2.64-2.99-5.29-4.46-7.95
			c-0.7-1.26-1.39-2.52-2.07-3.79c-0.34-0.63-0.69-1.27-1.03-1.9c-0.23-0.43-1.24-1.78-1.06-2.31c0.13-0.38,1.15-0.9,1.47-1.13
			c0.54-0.4,1.08-0.8,1.62-1.19c1.11-0.8,2.24-1.57,3.38-2.32c2.11-1.38,4.27-2.67,6.48-3.89c18.37-10.12,39.3-14.46,59.75-18.11
			c2.52-0.45,5.04-0.89,7.56-1.32c0.31-0.05,1.69-0.34,1.7-0.79c0.01-0.49-0.85-0.33-1.16-0.28c-22.97,3.98-46.56,8.17-67.46,19.02
			c-5.75,2.99-11.22,6.46-16.3,10.49c-0.1,0.07-0.14,0.16-0.14,0.28c8.58,16.09,17.85,31.82,27.8,47.1
			c3.54,5.44,8.53,11.84,15.83,10.74c3.28-0.5,6.17-2.25,8.07-4.96c2.22-3.16,2.72-7.09,2.42-10.86c-0.36-4.49-1.56-8.95-2.63-13.31
			c-1.09-4.44-2.3-8.86-3.53-13.26c-2.48-8.81-5.1-17.58-7.28-26.47c-4.29-17.45-6.97-36-3.01-53.78
			c3.11-13.94,10.6-27.59,22.48-35.9c1.44-1,2.93-1.92,4.47-2.76c-0.85,0.07-1.69,0.14-2.54,0.22
			c-10.19,16.03-19.03,32.91-26.39,50.42c-7.71,18.36-13.98,37.32-20.6,56.09c-3.78,10.73-7.56,21.47-11.35,32.2
			C179.36,213.01,182.14,212.72,182.4,211.97L182.4,211.97z"/>
	</g>
</g>
<g>
	<g>
		<path class="st0" d="M345.19,111.58c-10.69,2.84-19.8,9.39-27.98,16.62c-8.5,7.51-16.41,15.7-23.73,24.37
			c-7.37,8.74-14.11,18.01-20.13,27.72c-2.95,4.75-5.99,9.74-7.14,15.28c-1.04,4.97-0.15,9.92,2.59,14.2
			c6.8,10.62,20.25,12.75,31.88,12.78c0.59,0,1.62-0.19,1.91-0.8c0.28-0.59-0.24-0.89-0.79-0.89c-10.27-0.03-21.51-1.6-28.56-9.89
			c-3.13-3.68-4.91-8.34-4.5-13.21c0.47-5.57,3.22-10.64,6.06-15.33c11.25-18.6,25.14-35.61,41.08-50.4
			c8.63-8,18.13-15.88,29.73-18.96c0.44-0.12,1.41-0.53,1.25-1.14C346.68,111.33,345.6,111.47,345.19,111.58L345.19,111.58z"/>
	</g>
</g>
<g>
	<g>
		<path class="st0" d="M342.29,162.96c0.14-1.01,0.29-2.02,0.43-3.03c0.14-0.95-1.95-0.36-2.31-0.12
			c-8.33,5.33-15.22,12.63-19.97,21.31c-1.2,2.18-2.25,4.45-3.14,6.78c-0.79,2.06-1.53,4.47-0.95,6.68
			c1.26,4.86,7.43,4.16,11.07,2.97c5.46-1.78,10.37-4.93,14.28-9.13c0.48-0.51-0.42-0.69-0.74-0.7c-3.92-0.07-7.7,1.12-10.93,3.32
			c-0.49,0.33-0.32,0.79,0.23,0.87c4.74,0.67,9.64-0.04,14-2.05c1.64-0.75,3.44-1.55,4.15-3.33c0.57-1.42,0.05-2.53-1.56-2.47
			c-0.14,0.45-0.28,0.89-0.43,1.34c2.31-0.66,4.9-1.4,6.99,0.24c1.95,1.53,1.74,3.79,0.35,5.64c-2.52,3.38-6.5,5.8-10.62,6.6
			c-0.4,0.08-1.64,0.34-1.67,0.91c-0.03,0.61,0.81,0.52,1.21,0.48c7.83-0.75,15.45-3.27,22.19-7.34c1.05-0.63,0.29-1.17-0.65-1.03
			c-2.95,0.45-7.5,1.43-7.71,5.15c-0.24,4.36,5.33,2.93,7.86,2.34c7.95-1.87,15.21-5.92,21.76-10.71
			c6.98-5.1,13.37-11.04,19.59-17.03c6.54-6.29,12.81-12.86,18.79-19.69c3.31-3.78,6.65-7.6,9.65-11.63
			c2.65-3.56,4.88-7.56,4.76-12.12c-0.02-0.77-2.05-0.09-2.32,0.05c-12.06,6.72-21.61,16.61-28.84,28.3
			c-6.84,11.06-11.76,23.14-16.94,35.02c-2.94,6.74-5.97,13.44-9.48,19.9c0.93-0.25,1.86-0.5,2.79-0.75
			c-8.68-8.82-13.02-21.53-11.51-33.82c-0.3,0.23-0.6,0.47-0.9,0.7c25.71-10.64,53.32-15.3,80.81-18.58
			c7.81-0.93,15.64-1.75,23.47-2.57c0.4-0.04,1.64-0.36,1.67-0.91c0.02-0.6-0.81-0.53-1.21-0.48c-27.98,2.92-56.16,5.91-83.28,13.72
			c-7.65,2.2-15.19,4.79-22.54,7.84c-0.26,0.11-0.85,0.36-0.9,0.7c-1.54,12.56,2.81,25.45,11.68,34.48
			c0.64,0.65,2.43-0.08,2.79-0.75c12.11-22.31,18.52-48.26,35.79-67.5c5.26-5.86,11.46-10.8,18.33-14.63
			c-0.77,0.02-1.55,0.04-2.32,0.05c0.09,3.76-1.58,7.19-3.68,10.21c-2.18,3.15-4.72,6.06-7.2,8.98
			c-5.12,6.04-10.47,11.89-16.03,17.53c-5.57,5.66-11.35,11.14-17.36,16.32c-5.54,4.77-11.4,9.28-17.96,12.56
			c-3.6,1.8-7.44,3.2-11.4,3.93c-0.92,0.17-1.92,0.42-2.57-0.43c-0.46-0.61-0.51-1.48-0.34-2.21c0.47-2,2.53-2.32,4.27-2.58
			c-0.22-0.34-0.43-0.69-0.65-1.03c-6.11,3.69-12.88,5.93-19.99,6.62c-0.15,0.46-0.3,0.93-0.45,1.39
			c5.43-1.04,11.59-4.06,14.41-9.07c1.32-2.34,0.57-4.81-1.74-6.13c-2.84-1.62-6.33-0.74-9.27,0.11c-0.31,0.09-1.24,0.37-1.28,0.82
			c-0.04,0.45,0.49,0.53,0.85,0.51c0.44-0.02-0.47,2.1-0.66,2.29c-0.91,0.93-2.58,1.46-3.79,1.88c-2.94,1.02-6.07,1.24-9.14,0.81
			c0.08,0.29,0.15,0.58,0.23,0.87c2.24-1.52,4.77-2.23,7.47-2.18c-0.25-0.23-0.5-0.47-0.74-0.7c-3.05,3.28-6.8,5.89-10.99,7.5
			c-1.83,0.71-3.93,1.39-5.89,0.84c-2.01-0.56-3.04-2.41-3.08-4.41c-0.05-2.14,0.83-4.26,1.63-6.2c0.8-1.94,1.71-3.83,2.72-5.67
			c2.08-3.78,4.63-7.32,7.52-10.52c3.29-3.65,7.07-6.87,11.21-9.52c-0.77-0.04-1.54-0.08-2.31-0.12c-0.14,1.01-0.29,2.02-0.43,3.03
			C339.27,164.35,342.17,163.82,342.29,162.96L342.29,162.96z"/>
	</g>
</g>
<g>
	<g>
		<path class="st0" d="M487.62,156.43c-7.99,16.33-16.63,32.35-25.89,48c0.96-0.21,1.92-0.42,2.88-0.63
			c0.56-8.39,4.06-16.2,8.13-23.43c3.97-7.08,8.47-13.87,13.38-20.33c9.66-12.69,21.02-24.13,33.71-33.79
			c7.23-5.5,15.24-10.58,24.42-11.82c-0.39-0.12-0.79-0.24-1.18-0.36c-0.73,5.73-4.58,10.13-8.77,13.81
			c-4.58,4.03-9.51,7.67-14.12,11.67c-9.85,8.55-19.08,17.82-27.58,27.72c-4.2,4.89-8.23,9.93-12.07,15.12
			c-3.71,5.01-7.87,10.22-9.71,16.26c-1.58,5.19-0.82,10.56,2.31,15.01c2.89,4.1,7.13,7.06,11.59,9.24
			c6.05,2.97,12.72,4.6,19.34,5.74c7.7,1.33,15.52,1.74,23.32,1.29c0.53-0.03,1.63-0.2,1.93-0.72c0.3-0.52-0.26-0.59-0.71-0.57
			c-6.96,0.41-13.94,0.09-20.83-0.98c-6.07-0.94-12.22-2.33-17.91-4.7c-9.25-3.86-18.94-11.77-16.64-22.96
			c1.26-6.14,5.3-11.39,8.92-16.35c3.8-5.21,7.8-10.28,11.97-15.2c8.15-9.61,16.98-18.65,26.4-27.02
			c5.15-4.57,10.64-8.71,15.85-13.2c4.48-3.85,8.79-8.54,9.57-14.63c0.07-0.55-0.88-0.4-1.18-0.36c-8.33,1.12-15.95,4.95-22.81,9.67
			c-6.86,4.72-13.27,10.17-19.3,15.91c-12.03,11.44-22.48,24.56-30.93,38.84c-4.91,8.29-9.34,17.16-10,26.93
			c-0.05,0.76,2.63-0.2,2.88-0.63c9.26-15.65,17.9-31.66,25.89-48C490.75,155.41,488,155.64,487.62,156.43L487.62,156.43z"/>
	</g>
</g>
<g>
	<g>
		<path class="st0" d="M504.49,192.03c-1.66,0.72-3.25,1.6-4.73,2.64c-1.25,0.88-2.74,1.9-3.46,3.3c-1.78,3.49,4.16,3.34,6.05,3.05
			c2.56-0.38,5.96-1.73,6.37-4.66c0.35-2.51-1.27-4.51-3.78-4.5c-0.41,0.42-0.82,0.85-1.23,1.27c2.61-0.12,4.47,2.73,4.23,5.09
			c-0.07,0.68,2.63-0.14,2.88-0.63c1.41-2.69,3.56-4.99,6.25-6.44c0.64-0.35,3.14-1.83,3.51-0.59c0.2,0.68-0.68,2-0.94,2.58
			c-0.37,0.83-0.74,1.66-1.11,2.5c-0.35,0.78,2.31,0.03,2.55-0.15c4.57-3.39,9.47-6.25,14.66-8.57c-0.76,0-1.52,0-2.28-0.01
			c-1.36,2.33-2.77,4.64-4.07,7c-0.96,1.74-1.84,4.12-0.13,5.71c1.25,1.16,3.26,1.23,4.85,1.12c2.46-0.17,4.9-0.8,7.23-1.6
			c0.33-0.11,1.14-0.45,0.84-0.9c-0.28-0.41-1.58,0.02-1.88,0.12c-2.29,0.79-8.29,2.67-9.07-1.12c-0.39-1.91,1.06-3.86,1.96-5.42
			c1.05-1.8,2.09-3.59,3.14-5.39c0.41-0.71-2.12-0.08-2.28-0.01c-5.38,2.4-10.48,5.38-15.21,8.89c0.85-0.05,1.7-0.1,2.55-0.15
			c0.56-1.25,1.12-2.49,1.67-3.74c0.33-0.75,0.76-1.66-0.03-2.26c-1.45-1.1-4.2,0.02-5.64,0.59c-4.03,1.59-7.42,4.47-9.44,8.33
			c0.96-0.21,1.92-0.42,2.88-0.63c0.33-3.38-2.75-5.73-5.9-5.59c-0.52,0.02-1.65,0.21-1.93,0.71c-0.3,0.53,0.26,0.56,0.71,0.56
			c1.5,0,2.2,2.27,2.16,3.44c-0.07,2.06-1.8,3.25-3.73,3.31c-0.93,0.03-2.41,0.07-2.99-0.77c-0.67-0.95,0.22-2.08,0.92-2.74
			c1.75-1.66,3.93-2.9,6.12-3.86c0.41-0.18,0.83-0.55,0.33-0.84C506.02,191.38,504.96,191.82,504.49,192.03L504.49,192.03z"/>
	</g>
</g>
<g>
	<g>
		<path class="st0" d="M555.47,188.84c-7.49,1.19-14.45,4.83-19.53,10.49c-0.7,0.78,0.2,1.36,1.01,1.22
			c7.54-1.35,14.7-4.18,21.07-8.46c-0.7-0.28-1.4-0.56-2.11-0.84c-1.44,1.75-2.87,3.51-4.31,5.26c-0.4,0.49-0.32,0.97,0.32,1.18
			c0.69,0.22,1.52-0.1,2.05-0.55c3.55-3.01,7.96-4.69,12.61-4.91c-0.4-0.33-0.8-0.66-1.19-0.99c-1.33,2.13-2.82,4.7-1.94,7.29
			c0.78,2.3,2.9,3.25,5.21,2.87c2.68-0.43,5.33-1.99,7.64-3.34c2.55-1.49,4.92-3.26,7.18-5.16c8.87-7.44,16.48-16.7,22.95-26.25
			c3.74-5.53,7.09-11.31,10.04-17.3c0.58-1.18-1.39-1.01-1.96-0.78c-5.38,2.13-8.75,7.03-11.68,11.78
			c-3.38,5.48-6.24,11.27-8.59,17.26c-2.25,5.75-4.35,11.89-5.29,18.01c-0.39,2.54,0.54,4.85,3.33,5.15
			c2.61,0.28,5.04-0.98,7.25-2.19c6.06-3.32,11.51-7.68,16.07-12.87c1.13-1.28-1.39-1.38-2.11-0.84c-4.97,3.79-8.72,8.8-10.91,14.65
			c-0.14,0.38,0.33,0.62,0.59,0.71c2.04,0.73,4.25,0.52,6.2-0.4c0.45-0.21,1.15-0.74,0.74-1.29c-0.39-0.53-1.46-0.33-1.94-0.1
			c-1.11,0.53-2.12,0.48-3.26,0.07c0.2,0.24,0.39,0.47,0.59,0.71c1.96-5.24,5.39-9.91,9.84-13.3c-0.7-0.28-1.4-0.56-2.11-0.84
			c-3.58,4.07-7.68,7.62-12.26,10.52c-1.95,1.23-4.24,2.9-6.56,3.31c-3.24,0.58-2.66-3.26-2.23-5.24
			c2.37-10.91,6.47-21.42,12.11-31.06c2.8-4.78,5.99-10.5,11.41-12.64c-0.65-0.26-1.31-0.52-1.96-0.78
			c-4.64,9.41-10.27,18.34-16.84,26.52c-3.26,4.07-6.75,7.96-10.44,11.64c-3.65,3.64-7.55,7.06-12.01,9.67
			c-1.24,0.73-2.52,1.37-3.84,1.94c-1.24,0.54-2.56,1.16-3.61-0.04c-2.02-2.29-0.2-5.41,1.12-7.51c0.5-0.81-0.69-1.01-1.19-0.99
			c-5.65,0.27-11.01,2.45-15.31,6.09c0.79,0.21,1.58,0.42,2.36,0.63c1.44-1.75,2.87-3.51,4.31-5.26c1.11-1.35-1.38-1.32-2.11-0.84
			c-5.7,3.83-12.12,6.49-18.88,7.69c0.34,0.41,0.67,0.81,1.01,1.22c4.39-4.89,10.31-8.27,16.82-9.31c0.55-0.09,1.55-0.37,1.63-1.06
			C556.83,188.93,555.96,188.76,555.47,188.84L555.47,188.84z"/>
	</g>
</g>
<g>
	<g>
		<path class="st0" d="M624.3,190.47c-2.32,0.8-4.86,1.74-6.15,3.99c-1.06,1.86-0.79,4.18,1.08,5.38c1.88,1.21,4.39,1.12,6.53,1.08
			c2.81-0.06,5.61-0.45,8.35-1.1c0.55-0.13,1.36-0.65,1.2-1.32c-0.17-0.69-1.18-0.67-1.7-0.54c-2.07,0.5-4.18,0.8-6.31,0.92
			c-1.68,0.09-3.62,0.26-5.23-0.35c-1.44-0.54-1.98-2.02-1.35-3.41c0.73-1.63,2.52-2.24,4.09-2.78c0.54-0.18,1.37-0.61,1.2-1.32
			C625.84,190.36,624.81,190.29,624.3,190.47L624.3,190.47z"/>
	</g>
</g>
<g>
	<g>
		<path class="st0" d="M625.13,176.28c0.62,0,1.61-0.18,1.9-0.83c0.27-0.59-0.23-0.99-0.82-0.99c-0.62,0-1.61,0.18-1.9,0.83
			C624.04,175.88,624.54,176.28,625.13,176.28L625.13,176.28z"/>
	</g>
</g>
<g>
	<g>
		<path class="st0" d="M500.11,170.32c32.9-1.19,65.83-1.8,98.75-1.81c32.92-0.02,65.85,0.56,98.75,1.72
			c18.47,0.65,36.93,1.49,55.37,2.51c0.57,0.03,1.63-0.22,1.91-0.79c0.29-0.6-0.25-0.8-0.78-0.83c-32.87-1.82-65.78-3.05-98.7-3.7
			c-32.92-0.64-65.85-0.7-98.77-0.17c-18.48,0.3-36.95,0.78-55.41,1.45c-0.58,0.02-1.62,0.18-1.91,0.79
			C499.05,170.05,499.56,170.34,500.11,170.32L500.11,170.32z"/>
	</g>
</g>
</svg>
